# xmcd CD database file
#
# Track frame offsets:
#	150
#	15755
#	29940
#	47555
#	60942
#	76880
#	87547
#	101415
#	114860
#	125765
#	144580
#	154420
#	172440
#	185255
#	196242
#	206360
#	222575
#	230435
#
# Disc length: 3196 seconds
#
# Revision: 1
# Processed by: cddbd v1.5.2PL0 Copyright (c) Steve Scherf et al.
# Submitted via: CDex 1.51
#
DISCID=f90c7a12
DTITLE=Dinamita Pa Los Pollos - Purita Dinamita and No Molestes A Pa' Cuando Está...
DYEAR=1988
DGENRE=Pop
TTITLE0=Pandilleros
TTITLE1=Rock-A-Bumba
TTITLE2=Luz De Luna
TTITLE3=Toro Mecánico
TTITLE4=Radio Texas
TTITLE5=Billy Joe
TTITLE6=Purita Dinamita
TTITLE7=Dollar De Plata
TTITLE8=El Rey Del Tractor
TTITLE9=Trago Amargo
TTITLE10=Marie's The Name (His Latest Flame)
TTITLE11=Flores Y Gasoil
TTITLE12=Bourbon
TTITLE13=Cantante De Country
TTITLE14=Rancho De Pollos
TTITLE15=7 Novias Para 7 Hermanos
TTITLE16=18 Ruedas
TTITLE17=Locomotion
EXTD=YEAR: 1988
EXTT0=
EXTT1=
EXTT2=
EXTT3=
EXTT4=
EXTT5=
EXTT6=
EXTT7=
EXTT8=
EXTT9=
EXTT10=
EXTT11=
EXTT12=
EXTT13=
EXTT14=
EXTT15=
EXTT16=
EXTT17=
PLAYORDER=
